HIERARCHY
ROOT Hips
{
  OFFSET 5.72205e-005 65.662 3.42586
  CHANNELS 6 Xposition Yposition Zposition Zrotation Xrotation Yrotation
  JOINT Chest
  {
    OFFSET 0 8.7983 -4.7612
    CHANNELS 6 Xposition Yposition Zposition Zrotation Xrotation Yrotation
    JOINT Chest2
    {
      OFFSET 0 8.0291 0.4195
      CHANNELS 6 Xposition Yposition Zposition Zrotation Xrotation Yrotation
      JOINT Chest3
      {
        OFFSET 0 9.9351 -2.2114
        CHANNELS 6 Xposition Yposition Zposition Zrotation Xrotation Yrotation
        JOINT Neck
        {
          OFFSET 0 22.3885 -0.4656
          CHANNELS 6 Xposition Yposition Zposition Zrotation Xrotation Yrotation
          JOINT Head
          {
            OFFSET -0.0001 12.643 3.4389
            CHANNELS 6 Xposition Yposition Zposition Zrotation Xrotation Yrotation
            End Site
            {
              OFFSET 0.0001 17.6655 0.5274
            }
          }
        }
        JOINT LeftCollar
        {
          OFFSET 2.2603 21.606 7.4023
          CHANNELS 6 Xposition Yposition Zposition Zrotation Xrotation Yrotation
          JOINT LeftShoulder
          {
            OFFSET 13.5163 -1.1332 -5.0146
            CHANNELS 6 Xposition Yposition Zposition Zrotation Xrotation Yrotation
            JOINT LeftElbow
            {
              OFFSET -0.0995 -28.05 -0.2431
              CHANNELS 6 Xposition Yposition Zposition Zrotation Xrotation Yrotation
              JOINT LeftWrist
              {
                OFFSET 0.0679 -23.3996 -0.1402
                CHANNELS 6 Xposition Yposition Zposition Zrotation Xrotation Yrotation
                JOINT LeftFinger1
                {
                  OFFSET 0.7932 -9.069 2.5189
                  CHANNELS 6 Xposition Yposition Zposition Zrotation Xrotation Yrotation
                  JOINT LeftFinger11
                  {
                    OFFSET -0.8272 -3.3923 0.5977
                    CHANNELS 6 Xposition Yposition Zposition Zrotation Xrotation Yrotation
                    JOINT LeftFinger12
                    {
                      OFFSET -0.5649 -2.3158 0.4082
                      CHANNELS 6 Xposition Yposition Zposition Zrotation Xrotation Yrotation
                      End Site
                      {
                        OFFSET -0.4919 -1.6479 0.2673
                      }
                    }
                  }
                }
                JOINT LeftFinger2
                {
                  OFFSET 0.9159 -9.2044 0.2193
                  CHANNELS 6 Xposition Yposition Zposition Zrotation Xrotation Yrotation
                  JOINT LeftFinger21
                  {
                    OFFSET 0.0117 -4.1944 -0.0248
                    CHANNELS 6 Xposition Yposition Zposition Zrotation Xrotation Yrotation
                    JOINT LeftFinger22
                    {
                      OFFSET 0.0071 -2.3249 -0.0142
                      CHANNELS 6 Xposition Yposition Zposition Zrotation Xrotation Yrotation
                      End Site
                      {
                        OFFSET -0.1475 -2.0882 0.0028
                      }
                    }
                  }
                }
                JOINT LeftFinger3
                {
                  OFFSET 0.6113 -8.7231 -2.0637
                  CHANNELS 6 Xposition Yposition Zposition Zrotation Xrotation Yrotation
                  JOINT LeftFinger31
                  {
                    OFFSET -0.1927 -3.8059 -0.2383
                    CHANNELS 6 Xposition Yposition Zposition Zrotation Xrotation Yrotation
                    JOINT LeftFinger32
                    {
                      OFFSET -0.1091 -2.1688 -0.1362
                      CHANNELS 6 Xposition Yposition Zposition Zrotation Xrotation Yrotation
                      End Site
                      {
                        OFFSET -0.2358 -1.9176 -0.0906
                      }
                    }
                  }
                }
                JOINT LeftFinger4
                {
                  OFFSET -0.6151 -8.0947 -3.5641
                  CHANNELS 6 Xposition Yposition Zposition Zrotation Xrotation Yrotation
                  JOINT LeftFinger41
                  {
                    OFFSET -0.4882 -2.341 -0.6462
                    CHANNELS 6 Xposition Yposition Zposition Zrotation Xrotation Yrotation
                    JOINT LeftFinger42
                    {
                      OFFSET -0.3575 -1.7167 -0.4742
                      CHANNELS 6 Xposition Yposition Zposition Zrotation Xrotation Yrotation
                      End Site
                      {
                        OFFSET -0.4187 -1.5237 -0.3496
                      }
                    }
                  }
                }
                JOINT LeftFinger0
                {
                  OFFSET -1.42 -1.8761 1.4223
                  CHANNELS 6 Xposition Yposition Zposition Zrotation Xrotation Yrotation
                  JOINT LeftFinger01
                  {
                    OFFSET -1.1471 -3.4929 2.6334
                    CHANNELS 6 Xposition Yposition Zposition Zrotation Xrotation Yrotation
                    JOINT LeftFinger02
                    {
                      OFFSET -0.823 -2.3 1.6571
                      CHANNELS 6 Xposition Yposition Zposition Zrotation Xrotation Yrotation
                      End Site
                      {
                        OFFSET -0.5822 -1.6914 1.1582
                      }
                    }
                  }
                }
              }
            }
          }
        }
        JOINT RightCollar
        {
          OFFSET -2.2603 21.606 7.4023
          CHANNELS 6 Xposition Yposition Zposition Zrotation Xrotation Yrotation
          JOINT RightShoulder
          {
            OFFSET -13.5187 -1.1334 -5.0155
            CHANNELS 6 Xposition Yposition Zposition Zrotation Xrotation Yrotation
            JOINT RightElbow
            {
              OFFSET 0.0994 -28.0499 -0.2431
              CHANNELS 6 Xposition Yposition Zposition Zrotation Xrotation Yrotation
              JOINT RightWrist
              {
                OFFSET -0.0679 -23.3996 -0.1402
                CHANNELS 6 Xposition Yposition Zposition Zrotation Xrotation Yrotation
                JOINT RightFinger1
                {
                  OFFSET -0.7932 -9.0691 2.5189
                  CHANNELS 6 Xposition Yposition Zposition Zrotation Xrotation Yrotation
                  JOINT RightFinger11
                  {
                    OFFSET 0.8272 -3.3923 0.5977
                    CHANNELS 6 Xposition Yposition Zposition Zrotation Xrotation Yrotation
                    JOINT RightFinger12
                    {
                      OFFSET 0.565 -2.3158 0.4082
                      CHANNELS 6 Xposition Yposition Zposition Zrotation Xrotation Yrotation
                      End Site
                      {
                        OFFSET 0.4919 -1.6479 0.2673
                      }
                    }
                  }
                }
                JOINT RightFinger2
                {
                  OFFSET -0.916 -9.2044 0.2193
                  CHANNELS 6 Xposition Yposition Zposition Zrotation Xrotation Yrotation
                  JOINT RightFinger21
                  {
                    OFFSET -0.0117 -4.1944 -0.0248
                    CHANNELS 6 Xposition Yposition Zposition Zrotation Xrotation Yrotation
                    JOINT RightFinger22
                    {
                      OFFSET -0.0071 -2.3249 -0.0142
                      CHANNELS 6 Xposition Yposition Zposition Zrotation Xrotation Yrotation
                      End Site
                      {
                        OFFSET 0.1475 -2.0882 0.0028
                      }
                    }
                  }
                }
                JOINT RightFinger3
                {
                  OFFSET -0.6113 -8.7231 -2.0637
                  CHANNELS 6 Xposition Yposition Zposition Zrotation Xrotation Yrotation
                  JOINT RightFinger31
                  {
                    OFFSET 0.1927 -3.8059 -0.2383
                    CHANNELS 6 Xposition Yposition Zposition Zrotation Xrotation Yrotation
                    JOINT RightFinger32
                    {
                      OFFSET 0.1091 -2.1688 -0.1362
                      CHANNELS 6 Xposition Yposition Zposition Zrotation Xrotation Yrotation
                      End Site
                      {
                        OFFSET 0.2358 -1.9176 -0.0906
                      }
                    }
                  }
                }
                JOINT RightFinger4
                {
                  OFFSET 0.6151 -8.0947 -3.564
                  CHANNELS 6 Xposition Yposition Zposition Zrotation Xrotation Yrotation
                  JOINT RightFinger41
                  {
                    OFFSET 0.4882 -2.341 -0.6462
                    CHANNELS 6 Xposition Yposition Zposition Zrotation Xrotation Yrotation
                    JOINT RightFinger42
                    {
                      OFFSET 0.3574 -1.7166 -0.4742
                      CHANNELS 6 Xposition Yposition Zposition Zrotation Xrotation Yrotation
                      End Site
                      {
                        OFFSET 0.4187 -1.5237 -0.3496
                      }
                    }
                  }
                }
                JOINT RightFinger0
                {
                  OFFSET 1.4199 -1.8761 1.4221
                  CHANNELS 6 Xposition Yposition Zposition Zrotation Xrotation Yrotation
                  JOINT RightFinger01
                  {
                    OFFSET 1.1472 -3.4929 2.6336
                    CHANNELS 6 Xposition Yposition Zposition Zrotation Xrotation Yrotation
                    JOINT RightFinger02
                    {
                      OFFSET 0.8229 -2.3 1.6571
                      CHANNELS 6 Xposition Yposition Zposition Zrotation Xrotation Yrotation
                      End Site
                      {
                        OFFSET 0.5822 -1.6914 1.1582
                      }
                    }
                  }
                }
              }
            }
          }
        }
      }
    }
  }
  JOINT RightHip
  {
    OFFSET -9.412 3.9771 -0.7758
    CHANNELS 6 Xposition Yposition Zposition Zrotation Xrotation Yrotation
    JOINT RightKnee
    {
      OFFSET -0.7531 -40.938 0
      CHANNELS 6 Xposition Yposition Zposition Zrotation Xrotation Yrotation
      JOINT RightAnkle
      {
        OFFSET 0 -40.1986 0
        CHANNELS 6 Xposition Yposition Zposition Zrotation Xrotation Yrotation
        JOINT RightToe
        {
          OFFSET 0 -4.4182 9.239
          CHANNELS 6 Xposition Yposition Zposition Zrotation Xrotation Yrotation
          End Site
          {
            OFFSET 0 0 6.1981
          }
        }
      }
    }
  }
  JOINT LeftHip
  {
    OFFSET 9.4119 3.9773 -0.7758
    CHANNELS 6 Xposition Yposition Zposition Zrotation Xrotation Yrotation
    JOINT LeftKnee
    {
      OFFSET 0.7532 -40.9383 0
      CHANNELS 6 Xposition Yposition Zposition Zrotation Xrotation Yrotation
      JOINT LeftAnkle
      {
        OFFSET 0 -40.1986 0
        CHANNELS 6 Xposition Yposition Zposition Zrotation Xrotation Yrotation
        JOINT LeftToe
        {
          OFFSET 0 -4.4182 9.239
          CHANNELS 6 Xposition Yposition Zposition Zrotation Xrotation Yrotation
          End Site
          {
            OFFSET 0 0 6.1981
          }
        }
      }
    }
  }
}
MOTION
Frames:	4
Frame Time:	0.0333333
-2.6957 27.0333 -26.753 2.75e-008 -9.00558 -7.174e-008 0 8.7983 -4.7612 0.0576286 15.1857 -0.170055 0 8.0291 0.4195 0.173723 30.3711 -0.377775 0 9.9351 -2.2114 0.173721 30.371 -0.377773 0 22.3885 -0.4656 0.510594 28.9988 -0.249421 -0.0001 12.643 3.4389 4.62494 -11.6062 0.9217 2.2603 21.606 7.4023 19.4238 -3.97669 -43.3998 13.5163 -1.1332 -5.0146 59.0681 -1.53609 67.8423 -0.0995 -28.05 -0.2431 -171.718 -56.2391 157.218 0.0679 -23.3996 -0.1402 -0.391623 -11.2654 37.0893 0.7932 -9.069 2.5189 -5.19557e-006 5.47915e-006 -2.01486e-006 -0.8272 -3.3923 0.5977 -3.18055e-015 6.36111e-015 -3.18055e-015 -0.5649 -2.3158 0.4082 -6.36111e-015 0 3.18055e-015 0.9159 -9.2044 0.2193 -5.19557e-006 5.47915e-006 -2.01486e-006 0.0117 -4.1944 -0.0248 -0.0128399 0.00232989 8.19807e-005 0.0071 -2.3249 -0.0142 -9.66715e-006 2.80472e-006 -1.54261e-006 0.6113 -8.7231 -2.0637 -5.19557e-006 5.47915e-006 -2.01486e-006 -0.1927 -3.8059 -0.2383 -0.0160566 0.00299187 0.000857689 -0.1091 -2.1688 -0.1362 0 6.36111e-015 -0 -0.6151 -8.0947 -3.5641 -5.19557e-006 5.47915e-006 -2.01486e-006 -0.4882 -2.341 -0.6462 -0.0125635 0.00311137 0.00281409 -0.3575 -1.7167 -0.4742 -3.18055e-015 -3.18055e-015 -9.54166e-015 -1.42 -1.8761 1.4223 -5.19557e-006 5.47915e-006 -2.01486e-006 -1.1471 -3.4929 2.6334 -3.18055e-015 6.36111e-015 -3.18055e-015 -0.823 -2.3 1.6571 -6.36111e-015 0 3.18055e-015 -2.2603 21.606 7.4023 -8.79957 4.86135 12.7144 -13.5187 -1.1334 -5.0155 -28.663 -36.3031 -52.7023 0.0994 -28.0499 -0.2431 91.6412 -11.0638 62.5988 -0.0679 -23.3996 -0.1402 -4.45268 44.4251 -8.92999 -0.7932 -9.06911 2.5189 -1.80858e-006 -1.72645e-006 1.79868e-006 0.8272 -3.3923 0.5977 -4.62767e-007 -2.21186e-006 1.49623e-006 0.565 -2.3158 0.4082 -1.3883e-006 -1.41528e-006 4.48869e-006 -0.916 -9.2044 0.2193 -1.80858e-006 -1.72645e-006 1.79868e-006 -0.0117 -4.1944 -0.0248 0.0129489 0.00232104 -7.94007e-005 -0.0071 -2.3249 -0.0142 -4.62981e-007 -3.52752e-006 1.49621e-006 -0.6113 -8.7231 -2.0637 -1.80858e-006 -1.72645e-006 1.79868e-006 0.1927 -3.8059 -0.2383 0.0163183 0.00303714 -0.000870109 0.1091 -2.1688 -0.1362 -3.97569e-015 -2.37964e-007 3.18055e-015 0.6151 -8.0947 -3.564 -1.80858e-006 -1.72645e-006 1.79868e-006 0.4882 -2.341 -0.6462 0.0145993 0.00368607 -0.00326556 0.3574 -1.7166 -0.4742 7.60653e-007 -3.1285e-006 4.63806e-006 1.4199 -1.8761 1.4221 -1.80858e-006 -1.72645e-006 1.79868e-006 1.1472 -3.4929 2.6336 -4.62767e-007 -2.21186e-006 1.49623e-006 0.8229 -2.3 1.6571 -1.3883e-006 -1.41528e-006 4.48869e-006 -9.412 3.9771 -0.7758 -13.8965 -5.14735 -9.35327 -0.7531 -40.938 3.55271e-015 -166.284 66.5189 169.336 -3.55271e-015 -40.1986 -1.77636e-015 -17.5703 46.024 -4.22769 -3.55271e-015 -4.4182 9.239 1.82647e-007 5.91019e-006 8.13579e-007 9.4119 3.9773 -0.7758 12.6306 -4.35905 9.27023 0.7532 -40.9383 7.10543e-015 166.577 66.7561 -169.589 -3.55271e-015 -40.1986 -1.77636e-015 16.3821 46.1331 5.7157 0 -4.4182 9.239 7.05657e-007 1.11845e-006 -4.65364e-007 
-2.69567 27.1578 -26.5951 -2.65302e-008 -9.00558 3.06947e-009 0 8.7983 -4.7612 0.0575517 15.126 -0.169627 -4.44089e-016 8.0291 0.4195 0.17311 30.2519 -0.37658 4.44089e-016 9.9351 -2.2114 0.173108 30.2517 -0.376577 0 22.3885 -0.4656 0.510594 28.9987 -0.249421 -0.0001 12.643 3.4389 4.6208 -11.3582 0.901288 2.2603 21.606 7.4023 19.0414 -3.28033 -43.806 13.5163 -1.1332 -5.0146 59.0681 -1.53611 67.8423 -0.0995 -28.05 -0.2431 -171.718 -56.2391 157.218 0.0679 -23.3996 -0.1402 -0.40781 -11.6315 36.6089 0.7932 -9.069 2.5189 -7.79284e-006 -2.6553e-006 -3.02697e-006 -0.8272 -3.3923 0.5977 8.26153e-007 4.70723e-006 -4.24504e-007 -0.5649 -2.3158 0.4082 -2.81927e-006 3.43006e-007 -3.78488e-007 0.9159 -9.2044 0.2193 -7.79284e-006 -2.6553e-006 -3.02697e-006 0.0117 -4.1944 -0.0248 -0.0128106 0.00232645 8.37513e-005 0.0071 -2.3249 -0.0142 -3.54143e-006 1.00922e-006 -2.86714e-006 0.6113 -8.7231 -2.0637 -7.79284e-006 -2.6553e-006 -3.02697e-006 -0.1927 -3.8059 -0.2383 -0.0160426 0.00300786 0.00085493 -0.1091 -2.1688 -0.1362 -3.18055e-015 0 -0 -0.6151 -8.0947 -3.5641 -7.79284e-006 -2.6553e-006 -3.02697e-006 -0.4882 -2.341 -0.6462 -0.0125952 0.00313433 0.00283038 -0.3575 -1.7167 -0.4742 -5.29669e-031 9.54166e-015 3.18055e-015 -1.42 -1.8761 1.4223 -7.79284e-006 -2.6553e-006 -3.02697e-006 -1.1471 -3.4929 2.6334 8.26153e-007 4.70723e-006 -4.24504e-007 -0.823 -2.3 1.6571 -2.81927e-006 3.43006e-007 -3.78488e-007 -2.2603 21.606 7.4023 -8.44916 5.31912 13.3576 -13.5187 -1.1334 -5.0155 -29.1237 -36.3646 -53.0868 0.0994 -28.0499 -0.2431 90.519 -11.6655 62.274 -0.0679 -23.3996 -0.1402 -3.35533 43.4195 -9.0504 -0.7932 -9.0691 2.5189 3.97569e-015 0 -0 0.8272 -3.3923 0.5977 -6.36111e-015 1.59028e-015 3.18055e-015 0.565 -2.3158 0.4082 -4.55254e-007 -5.17407e-006 1.50053e-006 -0.916 -9.2044 0.2193 3.97569e-015 0 -0 -0.0117 -4.1944 -0.0248 0.0129546 0.00230808 -8.48246e-005 -0.0071 -2.3249 -0.0142 9.10934e-007 -6.2888e-007 -3.00103e-006 -0.6113 -8.7231 -2.0637 3.97569e-015 0 -0 0.1927 -3.8059 -0.2383 0.0163233 0.00303226 -0.000869059 0.1091 -2.1688 -0.1362 -1.23401e-005 -3.94447e-006 -8.56215e-006 0.6151 -8.0947 -3.564 3.97569e-015 0 -0 0.4882 -2.341 -0.6462 0.0145668 0.00367503 -0.00326429 0.3574 -1.7166 -0.4742 -2.8048e-006 -2.62335e-006 2.58257e-008 1.4199 -1.8761 1.4221 3.97569e-015 0 -0 1.1472 -3.4929 2.6336 -6.36111e-015 1.59028e-015 3.18055e-015 0.8229 -2.3 1.6571 -4.55254e-007 -5.17407e-006 1.50053e-006 -9.412 3.9771 -0.7758 -13.8806 -4.86929 -9.31773 -0.7531 -40.938 -3.55271e-015 -166.131 66.8811 169.213 0 -40.1986 0 -17.5824 46.0354 -4.21089 -1.77636e-015 -4.4182 9.239 -7.01058e-007 -2.1549e-007 4.71155e-007 9.4119 3.9773 -0.7758 12.6146 -4.08214 9.23502 0.7532 -40.9383 0 166.427 67.1193 -169.469 -3.55271e-015 -40.1986 -1.77636e-015 16.3943 46.1449 5.69874 0 -4.4182 9.239 1.05845e-006 4.85802e-006 2.3313e-006 
-2.69564 27.269 -26.454 5.58495e-009 -9.00558 6.8548e-008 -4.44089e-016 8.7983 -4.7612 0.0574835 15.0727 -0.169243 0 8.0291 0.4195 0.172565 30.1453 -0.375511 -4.44089e-016 9.9351 -2.2114 0.172564 30.1451 -0.375509 0 22.3885 -0.4656 0.510594 28.9987 -0.249421 -0.0001 12.643 3.4389 4.61717 -11.1367 0.883087 2.2603 21.606 7.4023 18.7036 -2.65491 -44.1643 13.5163 -1.1332 -5.0146 59.0681 -1.53611 67.8423 -0.0995 -28.05 -0.2431 -171.718 -56.2391 157.218 0.0679 -23.3996 -0.1402 -0.425156 -11.9585 36.179 0.7932 -9.069 2.5189 -9.54166e-015 9.54166e-015 9.54166e-015 -0.8272 -3.3923 0.5977 4.14668e-006 -4.00491e-006 3.07478e-006 -0.5649 -2.3158 0.4082 6.36111e-015 6.36111e-015 -9.54166e-015 0.9159 -9.2044 0.2193 -9.54166e-015 9.54166e-015 9.54166e-015 0.0117 -4.1944 -0.0248 -0.0128182 0.00232175 8.83594e-005 0.0071 -2.3249 -0.0142 -3.18055e-015 0 -3.18055e-015 0.6113 -8.7231 -2.0637 -9.54166e-015 9.54166e-015 9.54166e-015 -0.1927 -3.8059 -0.2383 -0.0160564 0.00300564 0.000863898 -0.1091 -2.1688 -0.1362 -9.54166e-015 3.18055e-015 3.18055e-015 -0.6151 -8.0947 -3.5641 -9.54166e-015 9.54166e-015 9.54166e-015 -0.4882 -2.341 -0.6462 -0.0126294 0.00313456 0.0028423 -0.3575 -1.7167 -0.4742 -1.27222e-014 0 3.18055e-015 -1.42 -1.8761 1.4223 -9.54166e-015 9.54166e-015 9.54166e-015 -1.1471 -3.4929 2.6334 4.14668e-006 -4.00491e-006 3.07478e-006 -0.823 -2.3 1.6571 6.36111e-015 6.36111e-015 -9.54166e-015 -2.2603 21.606 7.4023 -8.13966 5.73203 13.9305 -13.5187 -1.1334 -5.0155 -29.5399 -36.4164 -53.4333 0.0994 -28.0499 -0.2431 89.5085 -12.1934 61.97 -0.0679 -23.3996 -0.1402 -2.3916 42.5174 -9.13267 -0.7932 -9.0691 2.5189 -8.97031e-007 2.99123e-006 3.00847e-006 0.8272 -3.3923 0.5977 -7.95139e-016 6.36111e-015 6.36111e-015 0.565 -2.3158 0.4082 -4.48515e-007 3.97806e-006 1.50424e-006 -0.916 -9.2044 0.2193 -8.97031e-007 2.99123e-006 3.00847e-006 -0.0117 -4.1944 -0.0248 0.0129544 0.00231282 -8.11131e-005 -0.0071 -2.3249 -0.0142 7.95139e-015 1.65052e-006 3.18055e-015 -0.6113 -8.7231 -2.0637 -8.97031e-007 2.99123e-006 3.00847e-006 0.1927 -3.8059 -0.2383 0.0163348 0.00303028 -0.000870325 0.1091 -2.1688 -0.1362 -4.48787e-007 2.76771e-006 1.50422e-006 0.6151 -8.0947 -3.564 -8.97031e-007 2.99123e-006 3.00847e-006 0.4882 -2.341 -0.6462 0.0145959 0.00367461 -0.003262 0.3574 -1.7166 -0.4742 1.59028e-015 1.65208e-006 3.18055e-015 1.4199 -1.8761 1.4221 -8.97031e-007 2.99123e-006 3.00847e-006 1.1472 -3.4929 2.6336 -7.95139e-016 6.36111e-015 6.36111e-015 0.8229 -2.3 1.6571 -4.48515e-007 3.97806e-006 1.50424e-006 -9.412 3.9771 -0.7758 -13.8666 -4.62085 -9.28614 -0.7531 -40.938 0 -165.99 67.2045 169.099 3.55271e-015 -40.1986 1.77636e-015 -17.5932 46.0456 -4.19588 3.55271e-015 -4.4182 9.239 1.41245e-030 1.27222e-014 -6.36111e-015 9.4119 3.9773 -0.7758 12.6004 -3.83456 9.20371 0.7532 -40.9383 -7.10543e-015 166.29 67.4436 -169.358 0 -40.1986 -1.77636e-015 16.4051 46.1553 5.68366 3.55271e-015 -4.4182 9.239 -2.5897e-007 3.41099e-009 -1.80812e-006 
-2.69562 27.3802 -26.313 2.83532e-008 -9.00557 -1.96248e-008 -4.44089e-016 8.7983 -4.7612 0.0574162 15.0194 -0.168858 4.44089e-016 8.0291 0.4195 0.172024 30.0386 -0.374441 4.44089e-016 9.9351 -2.2114 0.172022 30.0385 -0.374438 -4.44089e-016 22.3885 -0.4656 0.510595 28.9988 -0.249422 -0.0001 12.643 3.4389 4.61362 -10.9152 0.864912 2.2603 21.606 7.4023 18.3696 -2.02684 -44.5192 13.5163 -1.1332 -5.0146 59.0681 -1.53611 67.8423 -0.0995 -28.05 -0.2431 -171.718 -56.2391 157.218 0.0679 -23.3996 -0.1402 -0.445059 -12.2854 35.7483 0.7932 -9.069 2.5189 -3.18055e-015 6.36111e-015 3.18055e-015 -0.8272 -3.3923 0.5977 4.14603e-006 -3.24888e-006 3.07636e-006 -0.5649 -2.3158 0.4082 -2.81659e-006 8.58717e-006 -3.8393e-007 0.9159 -9.2044 0.2193 -3.18055e-015 6.36111e-015 3.18055e-015 0.0117 -4.1944 -0.0248 -0.0128097 0.00231967 8.9926e-005 0.0071 -2.3249 -0.0142 -0 0 3.18055e-015 0.6113 -8.7231 -2.0637 -3.18055e-015 6.36111e-015 3.18055e-015 -0.1927 -3.8059 -0.2383 -0.0160512 0.00299476 0.000860888 -0.1091 -2.1688 -0.1362 0 1.59028e-014 -0 -0.6151 -8.0947 -3.5641 -3.18055e-015 6.36111e-015 3.18055e-015 -0.4882 -2.341 -0.6462 -0.0126344 0.0031262 0.00283725 -0.3575 -1.7167 -0.4742 6.36111e-015 3.18055e-015 -1.27222e-014 -1.42 -1.8761 1.4223 -3.18055e-015 6.36111e-015 3.18055e-015 -1.1471 -3.4929 2.6334 4.14603e-006 -3.24888e-006 3.07636e-006 -0.823 -2.3 1.6571 -2.81659e-006 8.58717e-006 -3.8393e-007 -2.2603 21.606 7.4023 -7.83385 6.1484 14.502 -13.5187 -1.1334 -5.0155 -29.9592 -36.4656 -53.782 0.0994 -28.0499 -0.2431 88.4939 -12.7163 61.6545 -0.0679 -23.3996 -0.1402 -1.44108 41.6126 -9.19365 -0.7932 -9.0691 2.5189 -7.46139e-007 1.30196e-006 5.10479e-006 0.8272 -3.3923 0.5977 7.95139e-016 -1.43676e-006 -6.36111e-015 0.565 -2.3158 0.4082 6.36111e-015 -1.65709e-006 3.18055e-015 -0.916 -9.2044 0.2193 -7.46139e-007 1.30196e-006 5.10479e-006 -0.0117 -4.1944 -0.0248 0.0129495 0.00231794 -8.96938e-005 -0.0071 -2.3249 -0.0142 -1.95615e-005 1.72286e-007 -1.60327e-006 -0.6113 -8.7231 -2.0637 -7.46139e-007 1.30196e-006 5.10479e-006 0.1927 -3.8059 -0.2383 0.0163108 0.00302787 -0.000879949 0.1091 -2.1688 -0.1362 -2.77424e-006 1.69612e-007 6.93323e-008 0.6151 -8.0947 -3.564 -7.46139e-007 1.30196e-006 5.10479e-006 0.4882 -2.341 -0.6462 0.0145574 0.00367497 -0.00326594 0.3574 -1.7166 -0.4742 1.41466e-007 1.53303e-006 2.08805e-006 1.4199 -1.8761 1.4221 -7.46139e-007 1.30196e-006 5.10479e-006 1.1472 -3.4929 2.6336 7.95139e-016 -1.43676e-006 -6.36111e-015 0.8229 -2.3 1.6571 6.36111e-015 -1.65709e-006 3.18055e-015 -9.412 3.9771 -0.7758 -13.8526 -4.37216 -9.2547 -0.7531 -40.938 -3.55271e-015 -165.846 67.5279 168.982 3.55271e-015 -40.1986 0 -17.6041 46.0556 -4.18091 0 -4.4182 9.239 -1.59028e-015 1.27222e-014 -1.59028e-015 9.4119 3.9773 -0.7758 12.5864 -3.58673 9.17254 0.7532 -40.9383 3.55271e-015 166.149 67.768 -169.243 3.55271e-015 -40.1986 0 16.416 46.1656 5.66861 3.55271e-015 -4.4182 9.239 -9.6209e-007 -6.53495e-006 -3.83448e-006 
